<svg xmlns="http://www.w3.org/2000/svg" width="800" height="400"><rect width="800" height="400" x="0" y="0" fill="#FFFFFF" id="background"/><g id="viz"><g transform="translate(0,0)"><g transform="translate(10,20)"><g><path fill="#7f7f7f" d="M0,342C65,342,65,328,130,328C195,328,195,89,260,89C325,89,325,5.0000000000000036,390,5.0000000000000036C520,5.0000000000000036,520,360,650,360C715,360,715,130,780,130L780,220C715,220,715,360,650,360C520,360,520,163,390,163C325,163,325,211,260,211C195,211,195,344,130,344C65,344,65,348,0,348Z"><title>milei</title></path><path fill="#2ca02c" d="M0,354C65,354,65,360,130,360C195,360,195,360,260,360C325,360,325,360,390,360C520,360,520,359,650,359C715,359,715,360,780,360L780,360C715,360,715,359,650,359C520,359,520,360,390,360C325,360,325,360,260,360C195,360,195,360,130,360C65,360,65,358,0,358Z"><title>dnu</title></path><path fill="#e377c2" d="M0,349C65,349,65,360,130,360C195,360,195,360,260,360C325,360,325,360,390,360C520,360,520,359,650,359C715,359,715,360,780,360L780,360C715,360,715,359,650,359C520,359,520,360,390,360C325,360,325,360,260,360C195,360,195,360,130,360C65,360,65,353,0,353Z"><title>libre</title></path><path fill="#bcbd22" d="M0,360C65,360,65,352,130,352C195,352,195,360,260,360C325,360,325,360,390,360C520,360,520,359,650,359C715,359,715,360,780,360L780,360C715,360,715,359,650,359C520,359,520,360,390,360C325,360,325,360,260,360C195,360,195,358,130,358C65,358,65,360,0,360Z"><title>mundial</title></path><path fill="#ff7f0e" d="M0,359C65,359,65,345,130,345C195,345,195,360,260,360C325,360,325,360,390,360C520,360,520,359,650,359C715,359,715,360,780,360L780,360C715,360,715,359,650,359C520,359,520,360,390,360C325,360,325,360,260,360C195,360,195,351,130,351C65,351,65,359,0,359Z"><title>boca</title></path><path fill="#cccccc" d="M0,358C65,358,65,360,130,360C195,360,195,212,260,212C325,212,325,360,390,360C520,360,520,359,650,359C715,359,715,360,780,360L780,360C715,360,715,359,650,359C520,359,520,360,390,360C325,360,325,290,260,290C195,290,195,360,130,360C65,360,65,358,0,358Z"><title>paro</title></path><path fill="#8c564b" d="M0,358C65,358,65,359,130,359C195,359,195,291,260,291C325,291,325,261,390,261C520,261,520,359,650,359C715,359,715,360,780,360L780,360C715,360,715,359,650,359C520,359,520,357,390,357C325,357,325,359,260,359C195,359,195,359,130,359C65,359,65,358,0,358Z"><title>javier</title></path><path fill="#17becf" d="M0,358C65,358,65,358,130,358C195,358,195,360,260,360C325,360,325,164,390,164C520,164,520,359,650,359C715,359,715,360,780,360L780,360C715,360,715,359,650,359C520,359,520,260,390,260C325,260,325,360,260,360C195,360,195,358,130,358C65,358,65,358,0,358Z"><title>musk</title></path><path fill="#9467bd" d="M0,358C65,358,65,358,130,358C195,358,195,359,260,359C325,359,325,360,390,360C520,360,520,250.99999999999997,650,250.99999999999997C715,250.99999999999997,715,221,780,221L780,301C715,301,715,293,650,293C520,293,520,360,390,360C325,360,325,359,260,359C195,359,195,358,130,358C65,358,65,358,0,358Z"><title>israel</title></path><path fill="#1f77b4" d="M0,358C65,358,65,358,130,358C195,358,195,359,260,359C325,359,325,359,390,359C520,359,520,327,650,327C715,327,715,360,780,360L780,360C715,360,715,359,650,359C520,359,520,359,390,359C325,359,325,359,260,359C195,359,195,358,130,358C65,358,65,358,0,358Z"><title>ataque</title></path><path fill="#d62728" d="M0,358C65,358,65,358,130,358C195,358,195,359,260,359C325,359,325,358,390,358C520,358,520,294,650,294C715,294,715,302,780,302L780,360C715,360,715,326,650,326C520,326,520,358,390,358C325,358,325,359,260,359C195,359,195,358,130,358C65,358,65,358,0,358Z"><title>irán</title></path></g><g id="xAxis" transform="translate(0,360)" fill="none" font-size="10" font-family="sans-serif" text-anchor="middle"><path class="domain" stroke="currentColor" d="M0.5,0.5H780.5"/><g class="tick" opacity="1" transform="translate(0.5,0)"><line stroke="currentColor" y2="6"/><text fill="currentColor" y="9" dy="0.71em">Tue 09</text></g><g class="tick" opacity="1" transform="translate(65.5,0)"><line stroke="currentColor" y2="6"/><text fill="currentColor" y="9" dy="0.71em">12 PM</text></g><g class="tick" opacity="1" transform="translate(130.5,0)"><line stroke="currentColor" y2="6"/><text fill="currentColor" y="9" dy="0.71em">Wed 10</text></g><g class="tick" opacity="1" transform="translate(195.5,0)"><line stroke="currentColor" y2="6"/><text fill="currentColor" y="9" dy="0.71em">12 PM</text></g><g class="tick" opacity="1" transform="translate(260.5,0)"><line stroke="currentColor" y2="6"/><text fill="currentColor" y="9" dy="0.71em">Thu 11</text></g><g class="tick" opacity="1" transform="translate(325.5,0)"><line stroke="currentColor" y2="6"/><text fill="currentColor" y="9" dy="0.71em">12 PM</text></g><g class="tick" opacity="1" transform="translate(390.5,0)"><line stroke="currentColor" y2="6"/><text fill="currentColor" y="9" dy="0.71em">Fri 12</text></g><g class="tick" opacity="1" transform="translate(455.50000000000006,0)"><line stroke="currentColor" y2="6"/><text fill="currentColor" y="9" dy="0.71em">12 PM</text></g><g class="tick" opacity="1" transform="translate(520.5,0)"><line stroke="currentColor" y2="6"/><text fill="currentColor" y="9" dy="0.71em">Sat 13</text></g><g class="tick" opacity="1" transform="translate(585.5,0)"><line stroke="currentColor" y2="6"/><text fill="currentColor" y="9" dy="0.71em">12 PM</text></g><g class="tick" opacity="1" transform="translate(650.5,0)"><line stroke="currentColor" y2="6"/><text fill="currentColor" y="9" dy="0.71em">Apr 14</text></g><g class="tick" opacity="1" transform="translate(715.5,0)"><line stroke="currentColor" y2="6"/><text fill="currentColor" y="9" dy="0.71em">12 PM</text></g><g class="tick" opacity="1" transform="translate(780.5,0)"><line stroke="currentColor" y2="6"/><text fill="currentColor" y="9" dy="0.71em">Mon 15</text></g></g><text style="font-family: Arial, sans-serif; font-size: 12px; fill: rgb(123, 123, 123); font-weight: bold;" y="356" x="780" text-anchor="end">fecha</text><text style="font-family: Arial, sans-serif; font-size: 12px; fill: rgb(123, 123, 123); font-weight: bold;" x="4" text-anchor="start" dominant-baseline="hanging">cantidad</text><g id="labels"><text x="390" y="84" text-anchor="middle" alignment-baseline="middle" style="font-family: Arial, sans-serif; font-size: 10px; fill: black; font-weight: bold;">milei</text><text x="0" y="356" text-anchor="start" alignment-baseline="middle" style="font-family: Arial, sans-serif; font-size: 10px; fill: black; font-weight: bold;">dnu</text><text x="0" y="351" text-anchor="start" alignment-baseline="middle" style="font-family: Arial, sans-serif; font-size: 10px; fill: black; font-weight: bold;">libre</text><text x="130" y="355" text-anchor="middle" alignment-baseline="middle" style="font-family: Arial, sans-serif; font-size: 10px; fill: black; font-weight: bold;">mundial</text><text x="130" y="348" text-anchor="middle" alignment-baseline="middle" style="font-family: Arial, sans-serif; font-size: 10px; fill: black; font-weight: bold;">boca</text><text x="260" y="250.99999999999997" text-anchor="middle" alignment-baseline="middle" style="font-family: Arial, sans-serif; font-size: 10px; fill: black; font-weight: bold;">paro</text><text x="390" y="309" text-anchor="middle" alignment-baseline="middle" style="font-family: Arial, sans-serif; font-size: 10px; fill: black; font-weight: bold;">javier</text><text x="390" y="212" text-anchor="middle" alignment-baseline="middle" style="font-family: Arial, sans-serif; font-size: 10px; fill: black; font-weight: bold;">musk</text><text x="780" y="261" text-anchor="end" alignment-baseline="middle" style="font-family: Arial, sans-serif; font-size: 10px; fill: black; font-weight: bold;">israel</text><text x="650" y="343" text-anchor="middle" alignment-baseline="middle" style="font-family: Arial, sans-serif; font-size: 10px; fill: black; font-weight: bold;">ataque</text><text x="780" y="331" text-anchor="end" alignment-baseline="middle" style="font-family: Arial, sans-serif; font-size: 10px; fill: black; font-weight: bold;">irán</text></g></g><text x="4" y="4" style="font-family: Arial, sans-serif; font-size: 12px; fill: black; font-weight: bold; dominant-baseline: hanging;"/></g></g></svg>