<svg xmlns="http://www.w3.org/2000/svg" width="805" height="600"><rect width="805" height="600" x="0" y="0" fill="#FFFFFF" id="backgorund"/><g transform="translate(20,20)" id="viz"><g id="nodes"><g transform="translate(383.5,281)"><path id="p_943.5" d="M-5.143516556418883e-14,280A280,280,0,1,1,5.143516556418883e-14,-280A280,280,0,1,1,-5.143516556418883e-14,280Z" fill="none" stroke="#ccc"/></g><g transform="translate(300.7941557681702,277.2697713405188)" id="Buenos Aires"><path id="p_725.0797056044648" d="M-2.719005740372334e-14,148.01577849577592A148.01577849577592,148.01577849577592,0,1,1,2.719005740372334e-14,-148.01577849577592A148.01577849577592,148.01577849577592,0,1,1,-2.719005740372334e-14,148.01577849577592Z" fill="#d55a84" stroke="none"/></g><g transform="translate(518.8855369814072,277.2697713405188)" id="Córdoba"><path id="p_863.2694172376258" d="M-1.251235881905789e-14,68.11410891569979A68.11410891569979,68.11410891569979,0,1,1,1.251235881905789e-14,-68.11410891569979A68.11410891569979,68.11410891569979,0,1,1,-1.251235881905789e-14,68.11410891569979Z" fill="#25c2db" stroke="none"/></g><g transform="translate(474.6698643079008,406.94113920296536)" id="Santa Fe"><path id="p_947.537916658219" d="M-1.2294274494407804e-14,66.92691314735295A66.92691314735295,66.92691314735295,0,1,1,1.2294274494407804e-14,-66.92691314735295A66.92691314735295,66.92691314735295,0,1,1,-1.2294274494407804e-14,66.92691314735295Z" fill="#ce320d" stroke="none"/></g><g transform="translate(473.47246036713767,151.48229139408411)" id="Ciudad Autónoma de Buenos Aires"><path id="p_687.6133542376759" d="M-1.1693895564147494e-14,63.658602476454114A63.658602476454114,63.658602476454114,0,1,1,1.1693895564147494e-14,-63.658602476454114A63.658602476454114,63.658602476454114,0,1,1,-1.1693895564147494e-14,63.658602476454114Z" fill="#368cf9" stroke="none"/></g><g transform="translate(374.9258270774708,92.2097455171544)" id="Mendoza"><path id="p_515.514057296615" d="M-9.07068048555576e-15,49.37848470198984A49.37848470198984,49.37848470198984,0,1,1,9.07068048555576e-15,-49.37848470198984A49.37848470198984,49.37848470198984,0,1,1,-9.07068048555576e-15,49.37848470198984Z" fill="#a6f748" stroke="none"/></g><g transform="translate(373.0218710208757,458.44214239004555)" id="Tucumán"><path id="p_875.5258932914362" d="M-8.27773304388525e-15,45.06187988051484A45.06187988051484,45.06187988051484,0,1,1,8.27773304388525e-15,-45.06187988051484A45.06187988051484,45.06187988051484,0,1,1,-8.27773304388525e-15,45.06187988051484Z" fill="#900c00" stroke="none"/></g><g transform="translate(282.1269490851513,86.57412141595583)" id="Entre Ríos"><path id="p_409.33093665487604" d="M-7.647282350121878e-15,41.62986615376894A41.62986615376894,41.62986615376894,0,1,1,7.647282350121878e-15,-41.62986615376894A41.62986615376894,41.62986615376894,0,1,1,-7.647282350121878e-15,41.62986615376894Z" fill="#28d9c1" stroke="none"/></g><g transform="translate(285.23894459856785,467.87868562609344)" id="Salta"><path id="p_793.3829337298372" d="M-7.580313278018665e-15,41.26530350517594A41.26530350517594,41.26530350517594,0,1,1,7.580313278018665e-15,-41.26530350517594A41.26530350517594,41.26530350517594,0,1,1,-7.580313278018665e-15,41.26530350517594Z" fill="#ffa723" stroke="none"/></g><g transform="translate(573.6722131011378,182.6033206563858)" id="Misiones"><path id="p_794.5768790930213" d="M-7.2195400150953e-15,39.301345335497686A39.301345335497686,39.301345335497686,0,1,1,7.2195400150953e-15,-39.301345335497686A39.301345335497686,39.301345335497686,0,1,1,-7.2195400150953e-15,39.301345335497686Z" fill="#c7eb3b" stroke="none"/></g><g transform="translate(575.4371201479435,369.9152528382113)" id="Chaco"><path id="p_982.8183143915821" d="M-7.06607880275196e-15,38.46594140542748A38.46594140542748,38.46594140542748,0,1,1,7.06607880275196e-15,-38.46594140542748A38.46594140542748,38.46594140542748,0,1,1,-7.06607880275196e-15,38.46594140542748Z" fill="#4b4fd0" stroke="none"/></g><g transform="translate(453.18630476944656,50.57477304251714)" id="Corrientes"><path id="p_540.0674376507524" d="M-6.8530671246617906e-15,37.306359838788694A37.306359838788694,37.306359838788694,0,1,1,6.8530671246617906e-15,-37.306359838788694A37.306359838788694,37.306359838788694,0,1,1,-6.8530671246617906e-15,37.306359838788694Z" fill="#2ba8f0" stroke="none"/></g><g transform="translate(440.516465036657,505.0624243331316)" id="Santiago del Estero"><path id="p_979.5858205132778" d="M-6.4306689259268716e-15,35.006931143489176A35.006931143489176,35.006931143489176,0,1,1,6.4306689259268716e-15,-35.006931143489176A35.006931143489176,35.006931143489176,0,1,1,-6.4306689259268716e-15,35.006931143489176Z" fill="#b21c06" stroke="none"/></g><g transform="translate(217.47855243460472,437.8183802663819)" id="San Juan"><path id="p_685.1990279025254" d="M-5.676622796326678e-15,30.902095201538728A30.902095201538728,30.902095201538728,0,1,1,5.676622796326678e-15,-30.902095201538728A30.902095201538728,30.902095201538728,0,1,1,-5.676622796326678e-15,30.902095201538728Z" fill="#ff8a1f" stroke="none"/></g><g transform="translate(214.91227957145173,118.27949251334866)" id="Jujuy"><path id="p_362.91758614886845" d="M-5.644240476713651e-15,30.725814064068057A30.725814064068057,30.725814064068057,0,1,1,5.644240476713651e-15,-30.725814064068057A30.725814064068057,30.725814064068057,0,1,1,-5.644240476713651e-15,30.725814064068057Z" fill="#48f689" stroke="none"/></g><g transform="translate(332.40272879922713,523.7954686267212)" id="Río Negro"><path id="p_885.1226759880324" d="M-5.4970375330814725e-15,29.924478562084047A29.924478562084047,29.924478562084047,0,1,1,5.4970375330814725e-15,-29.924478562084047A29.924478562084047,29.924478562084047,0,1,1,-5.4970375330814725e-15,29.924478562084047Z" fill="#f9c229" stroke="none"/></g><g transform="translate(171.03276095989276,398.79129988574124)" id="Neuquén"><path id="p_596.6261503496203" d="M-5.107160988099747e-15,27.802089503986245A27.802089503986245,27.802089503986245,0,1,1,5.107160988099747e-15,-27.802089503986245A27.802089503986245,27.802089503986245,0,1,1,-5.107160988099747e-15,27.802089503986245Z" fill="#e3d931" stroke="none"/></g><g transform="translate(169.8487521680568,157.82092414325064)" id="Formosa"><path id="p_353.9344019170688" d="M-5.0084488414089874e-15,27.264725605761406A27.264725605761406,27.264725605761406,0,1,1,5.0084488414089874e-15,-27.264725605761406A27.264725605761406,27.264725605761406,0,1,1,-5.0084488414089874e-15,27.264725605761406Z" fill="#33eaa5" stroke="none"/></g><g transform="translate(608.5971005698419,240.92680417209337)" id="Chubut"><path id="p_875.2417723832077" d="M-4.9079926630390375e-15,26.717867641272424A26.717867641272424,26.717867641272424,0,1,1,4.9079926630390375e-15,-26.717867641272424A26.717867641272424,26.717867641272424,0,1,1,-4.9079926630390375e-15,26.717867641272424Z" fill="#436df1" stroke="none"/></g><g transform="translate(325.8575544778235,34.22458968330119)" id="San Luis"><path id="p_383.70250842246077" d="M-4.522687542973069e-15,24.620364261336086A24.620364261336086,24.620364261336086,0,1,1,4.522687542973069e-15,-24.620364261336086A24.620364261336086,24.620364261336086,0,1,1,-4.522687542973069e-15,24.620364261336086Z" fill="#fc6b1a" stroke="none"/></g><g transform="translate(604.2132278851504,313.7166304209233)" id="Catamarca"><path id="p_939.6399676987842" d="M-4.1717794164103526e-15,22.71010939271039A22.71010939271039,22.71010939271039,0,1,1,4.1717794164103526e-15,-22.71010939271039A22.71010939271039,22.71010939271039,0,1,1,-4.1717794164103526e-15,22.71010939271039Z" fill="#44328c" stroke="none"/></g><g transform="translate(555.7078186327694,122.33169662340694)" id="La Rioja"><path id="p_698.6685526387662" d="M-3.973189709884049e-15,21.629037382589757A21.629037382589757,21.629037382589757,0,1,1,3.973189709884049e-15,-21.629037382589757A21.629037382589757,21.629037382589757,0,1,1,-3.973189709884049e-15,21.629037382589757Z" fill="#83fd5a" stroke="none"/></g><g transform="translate(561.7181474362328,429.9424228251909)" id="La Pampa"><path id="p_1011.8080597306842" d="M-3.884730793279838e-15,21.147489469260517A21.147489469260517,21.147489469260517,0,1,1,3.884730793279838e-15,-21.147489469260517A21.147489469260517,21.147489469260517,0,1,1,-3.884730793279838e-15,21.147489469260517Z" fill="#63fd70" stroke="none"/></g><g transform="translate(149.7083180152041,354.27191258563124)" id="Santa Cruz"><path id="p_522.579666980663" d="M-3.6003580541472054e-15,19.599436379827583A19.599436379827583,19.599436379827583,0,1,1,3.6003580541472054e-15,-19.599436379827583A19.599436379827583,19.599436379827583,0,1,1,-3.6003580541472054e-15,19.599436379827583Z" fill="#e94d14" stroke="none"/></g><g transform="translate(157.64682329250562,198.61659004383358)" id="Tierra del Fuego, Antártida e Islas del Atlántico Sur"><path id="p_368.6185680794472" d="M-2.453302126239716e-15,13.355154743107976A13.355154743107976,13.355154743107976,0,1,1,2.453302126239716e-15,-13.355154743107976A13.355154743107976,13.355154743107976,0,1,1,-2.453302126239716e-15,13.355154743107976Z" fill="#9a0e00" stroke="none"/></g></g><g id="labels"><g transform="translate(300.7941557681702,277.2697713405188)"><text text-anchor="middle" dominant-baseline="text-before-edge" transform="translate(0,-11.390625)"><tspan x="0" y="0" dy="0" style="font-family: Arial, sans-serif; font-size: 10px; fill: black; font-weight: bold;">Buenos Aires</tspan><tspan x="0" y="0" dy="12" style="font-family: Arial, sans-serif; font-size: 10px; fill: black; font-weight: normal;">15625084</tspan></text></g><g transform="translate(518.8855369814072,277.2697713405188)"><text text-anchor="middle" dominant-baseline="text-before-edge" transform="translate(0,-11.390625)"><tspan x="0" y="0" dy="0" style="font-family: Arial, sans-serif; font-size: 10px; fill: black; font-weight: bold;">Córdoba</tspan><tspan x="0" y="0" dy="12" style="font-family: Arial, sans-serif; font-size: 10px; fill: black; font-weight: normal;">3308876</tspan></text></g><g transform="translate(474.6698643079008,406.94113920296536)"><text text-anchor="middle" dominant-baseline="text-before-edge" transform="translate(0,-11.390625)"><tspan x="0" y="0" dy="0" style="font-family: Arial, sans-serif; font-size: 10px; fill: black; font-weight: bold;">Santa Fe</tspan><tspan x="0" y="0" dy="12" style="font-family: Arial, sans-serif; font-size: 10px; fill: black; font-weight: normal;">3194537</tspan></text></g><g transform="translate(473.47246036713767,151.48229139408411)"><text text-anchor="middle" dominant-baseline="text-before-edge" transform="translate(0,-11.390625)"><tspan x="0" y="0" dy="0" style="font-family: Arial, sans-serif; font-size: 10px; fill: black; font-weight: bold;">Ciudad Autónoma de Buenos Aires</tspan><tspan x="0" y="0" dy="12" style="font-family: Arial, sans-serif; font-size: 10px; fill: black; font-weight: normal;">2890151</tspan></text></g><g transform="translate(374.9258270774708,92.2097455171544)"><text text-anchor="middle" dominant-baseline="text-before-edge" transform="translate(0,-11.390625)"><tspan x="0" y="0" dy="0" style="font-family: Arial, sans-serif; font-size: 10px; fill: black; font-weight: bold;">Mendoza</tspan><tspan x="0" y="0" dy="12" style="font-family: Arial, sans-serif; font-size: 10px; fill: black; font-weight: normal;">1738929</tspan></text></g><g transform="translate(373.0218710208757,458.44214239004555)"><text text-anchor="middle" dominant-baseline="text-before-edge" transform="translate(0,-11.390625)"><tspan x="0" y="0" dy="0" style="font-family: Arial, sans-serif; font-size: 10px; fill: black; font-weight: bold;">Tucumán</tspan><tspan x="0" y="0" dy="12" style="font-family: Arial, sans-serif; font-size: 10px; fill: black; font-weight: normal;">1448188</tspan></text></g><g transform="translate(282.1269490851513,86.57412141595583)"><text text-anchor="middle" dominant-baseline="text-before-edge" transform="translate(0,-11.390625)"><tspan x="0" y="0" dy="0" style="font-family: Arial, sans-serif; font-size: 10px; fill: black; font-weight: bold;">Entre Ríos</tspan><tspan x="0" y="0" dy="12" style="font-family: Arial, sans-serif; font-size: 10px; fill: black; font-weight: normal;">1235994</tspan></text></g><g transform="translate(285.23894459856785,467.87868562609344)"><text text-anchor="middle" dominant-baseline="text-before-edge" transform="translate(0,-11.390625)"><tspan x="0" y="0" dy="0" style="font-family: Arial, sans-serif; font-size: 10px; fill: black; font-weight: bold;">Salta</tspan><tspan x="0" y="0" dy="12" style="font-family: Arial, sans-serif; font-size: 10px; fill: black; font-weight: normal;">1214441</tspan></text></g><g transform="translate(573.6722131011378,182.6033206563858)"><text text-anchor="middle" dominant-baseline="text-before-edge" transform="translate(0,-11.390625)"><tspan x="0" y="0" dy="0" style="font-family: Arial, sans-serif; font-size: 10px; fill: black; font-weight: bold;">Misiones</tspan><tspan x="0" y="0" dy="12" style="font-family: Arial, sans-serif; font-size: 10px; fill: black; font-weight: normal;">1101593</tspan></text></g><g transform="translate(575.4371201479435,369.9152528382113)"><text text-anchor="middle" dominant-baseline="text-before-edge" transform="translate(0,-11.390625)"><tspan x="0" y="0" dy="0" style="font-family: Arial, sans-serif; font-size: 10px; fill: black; font-weight: bold;">Chaco</tspan><tspan x="0" y="0" dy="12" style="font-family: Arial, sans-serif; font-size: 10px; fill: black; font-weight: normal;">1055259</tspan></text></g><g transform="translate(453.18630476944656,50.57477304251714)"><text text-anchor="middle" dominant-baseline="text-before-edge" transform="translate(0,-11.390625)"><tspan x="0" y="0" dy="0" style="font-family: Arial, sans-serif; font-size: 10px; fill: black; font-weight: bold;">Corrientes</tspan><tspan x="0" y="0" dy="12" style="font-family: Arial, sans-serif; font-size: 10px; fill: black; font-weight: normal;">992595</tspan></text></g><g transform="translate(440.516465036657,505.0624243331316)"><text text-anchor="middle" dominant-baseline="text-before-edge" transform="translate(0,-11.390625)"><tspan x="0" y="0" dy="0" style="font-family: Arial, sans-serif; font-size: 10px; fill: black; font-weight: bold;">Santiago del Estero</tspan><tspan x="0" y="0" dy="12" style="font-family: Arial, sans-serif; font-size: 10px; fill: black; font-weight: normal;">874006</tspan></text></g><g transform="translate(217.47855243460472,437.8183802663819)"><text text-anchor="middle" dominant-baseline="text-before-edge" transform="translate(0,-11.390625)"><tspan x="0" y="0" dy="0" style="font-family: Arial, sans-serif; font-size: 10px; fill: black; font-weight: bold;">San Juan</tspan><tspan x="0" y="0" dy="12" style="font-family: Arial, sans-serif; font-size: 10px; fill: black; font-weight: normal;">681055</tspan></text></g><g transform="translate(214.91227957145173,118.27949251334866)"><text text-anchor="middle" dominant-baseline="text-before-edge" transform="translate(0,-11.390625)"><tspan x="0" y="0" dy="0" style="font-family: Arial, sans-serif; font-size: 10px; fill: black; font-weight: bold;">Jujuy</tspan><tspan x="0" y="0" dy="12" style="font-family: Arial, sans-serif; font-size: 10px; fill: black; font-weight: normal;">673307</tspan></text></g><g transform="translate(332.40272879922713,523.7954686267212)"><text text-anchor="middle" dominant-baseline="text-before-edge" transform="translate(0,-11.390625)"><tspan x="0" y="0" dy="0" style="font-family: Arial, sans-serif; font-size: 10px; fill: black; font-weight: bold;">Río Negro</tspan><tspan x="0" y="0" dy="12" style="font-family: Arial, sans-serif; font-size: 10px; fill: black; font-weight: normal;">638645</tspan></text></g><g transform="translate(171.03276095989276,398.79129988574124)"><text text-anchor="middle" dominant-baseline="text-before-edge" transform="translate(0,-11.390625)"><tspan x="0" y="0" dy="0" style="font-family: Arial, sans-serif; font-size: 10px; fill: black; font-weight: bold;">Neuquén</tspan><tspan x="0" y="0" dy="12" style="font-family: Arial, sans-serif; font-size: 10px; fill: black; font-weight: normal;">551266</tspan></text></g><g transform="translate(169.8487521680568,157.82092414325064)"><text text-anchor="middle" dominant-baseline="text-before-edge" transform="translate(0,-11.390625)"><tspan x="0" y="0" dy="0" style="font-family: Arial, sans-serif; font-size: 10px; fill: black; font-weight: bold;">Formosa</tspan><tspan x="0" y="0" dy="12" style="font-family: Arial, sans-serif; font-size: 10px; fill: black; font-weight: normal;">530162</tspan></text></g><g transform="translate(608.5971005698419,240.92680417209337)"><text text-anchor="middle" dominant-baseline="text-before-edge" transform="translate(0,-11.390625)"><tspan x="0" y="0" dy="0" style="font-family: Arial, sans-serif; font-size: 10px; fill: black; font-weight: bold;">Chubut</tspan><tspan x="0" y="0" dy="12" style="font-family: Arial, sans-serif; font-size: 10px; fill: black; font-weight: normal;">509108</tspan></text></g><g transform="translate(325.8575544778235,34.22458968330119)"><text text-anchor="middle" dominant-baseline="text-before-edge" transform="translate(0,-11.390625)"><tspan x="0" y="0" dy="0" style="font-family: Arial, sans-serif; font-size: 10px; fill: black; font-weight: bold;">San Luis</tspan><tspan x="0" y="0" dy="12" style="font-family: Arial, sans-serif; font-size: 10px; fill: black; font-weight: normal;">432310</tspan></text></g><g transform="translate(604.2132278851504,313.7166304209233)"><text text-anchor="middle" dominant-baseline="text-before-edge" transform="translate(0,-11.390625)"><tspan x="0" y="0" dy="0" style="font-family: Arial, sans-serif; font-size: 10px; fill: black; font-weight: bold;">Catamarca</tspan><tspan x="0" y="0" dy="12" style="font-family: Arial, sans-serif; font-size: 10px; fill: black; font-weight: normal;">367828</tspan></text></g><g transform="translate(555.7078186327694,122.33169662340694)"><text text-anchor="middle" dominant-baseline="text-before-edge" transform="translate(0,-11.390625)"><tspan x="0" y="0" dy="0" style="font-family: Arial, sans-serif; font-size: 10px; fill: black; font-weight: bold;">La Rioja</tspan><tspan x="0" y="0" dy="12" style="font-family: Arial, sans-serif; font-size: 10px; fill: black; font-weight: normal;">333642</tspan></text></g><g transform="translate(561.7181474362328,429.9424228251909)"><text text-anchor="middle" dominant-baseline="text-before-edge" transform="translate(0,-11.390625)"><tspan x="0" y="0" dy="0" style="font-family: Arial, sans-serif; font-size: 10px; fill: black; font-weight: bold;">La Pampa</tspan><tspan x="0" y="0" dy="12" style="font-family: Arial, sans-serif; font-size: 10px; fill: black; font-weight: normal;">318951</tspan></text></g><g transform="translate(149.7083180152041,354.27191258563124)"><text text-anchor="middle" dominant-baseline="text-before-edge" transform="translate(0,-11.390625)"><tspan x="0" y="0" dy="0" style="font-family: Arial, sans-serif; font-size: 10px; fill: black; font-weight: bold;">Santa Cruz</tspan><tspan x="0" y="0" dy="12" style="font-family: Arial, sans-serif; font-size: 10px; fill: black; font-weight: normal;">273964</tspan></text></g><g transform="translate(157.64682329250562,198.61659004383358)"><text text-anchor="middle" dominant-baseline="text-before-edge" transform="translate(0,-11.390625)"><tspan x="0" y="0" dy="0" style="font-family: Arial, sans-serif; font-size: 10px; fill: black; font-weight: bold;">Tierra del Fuego, Antártida e Islas del Atlántico Sur</tspan><tspan x="0" y="0" dy="12" style="font-family: Arial, sans-serif; font-size: 10px; fill: black; font-weight: normal;">127205</tspan></text></g></g></g></svg>