<?xml version="1.0" encoding="UTF-8" standalone="no"?>
<svg
   width="805"
   height="400"
   version="1.1"
   id="svg240"
   sodipodi:docname="bump_01.svg"
   inkscape:version="1.2.1 (9c6d41e410, 2022-07-14)"
   xmlns:inkscape="http://www.inkscape.org/namespaces/inkscape"
   xmlns:sodipodi="http://sodipodi.sourceforge.net/DTD/sodipodi-0.dtd"
   xmlns="http://www.w3.org/2000/svg"
   xmlns:svg="http://www.w3.org/2000/svg">
  <defs
     id="defs244" />
  <sodipodi:namedview
     id="namedview242"
     pagecolor="#ffffff"
     bordercolor="#000000"
     borderopacity="0.25"
     inkscape:showpageshadow="2"
     inkscape:pageopacity="0.0"
     inkscape:pagecheckerboard="0"
     inkscape:deskcolor="#d1d1d1"
     showgrid="false"
     inkscape:zoom="0.90942994"
     inkscape:cx="381.5577"
     inkscape:cy="153.94259"
     inkscape:window-width="1366"
     inkscape:window-height="745"
     inkscape:window-x="-8"
     inkscape:window-y="-8"
     inkscape:window-maximized="1"
     inkscape:current-layer="svg240" />
  <rect
     width="805"
     height="400"
     x="0"
     y="0"
     fill="#FFFFFF"
     id="background" />
  <g
     id="viz">
    <g
       id="g237"
       transform="translate(0,0)">
      <g
         transform="translate(10,20)"
         id="g233">
        <g
           id="g157">
          <path
             fill="#9467bd"
             d="M0,309.85322493705L2.8442028985507246,309.78808199172505C5.688405797101449,309.7229390464,11.376811594202898,309.59265315575,17.065217391304348,309.7295082937C22.753623188405797,309.86636343165,28.442028985507246,310.2703595982,34.130434782608695,309.38136284125C39.81884057971015,308.49236608430004,45.507246376811594,306.31037640384994,51.19565217391304,303.345268669725C56.88405797101449,300.3801609356,62.57246376811594,296.6319351478,68.26086956521739,292.2415181414C73.94927536231883,287.85110113499996,79.6376811594203,282.81849291,85.32608695652173,282.86884784750004C91.01449275362319,282.919202785,96.70289855072463,288.052520885,102.39130434782608,292.1987622725C108.07971014492755,296.34500366000003,113.76811594202898,299.50416833500003,119.45652173913044,300.96623970875004C125.14492753623188,302.4283110825,130.83333333333334,302.193289155,136.52173913043478,302.17442358803333C142.21014492753622,302.1555580210666,147.89855072463766,302.3528488146333,153.58695652173913,300.1287158806917C159.2753623188406,297.90458294675,164.96376811594203,293.2590262853,170.65217391304347,275.8356937974333C176.3405797101449,258.4123613095667,182.02898550724638,228.21125299528333,187.71739130434784,213.86248553914166C193.40579710144928,199.513718083,199.09420289855072,201.017291485,204.78260869565216,200.61959766375C210.4710144927536,200.22190384249998,216.15942028985503,197.922942798,221.8478260869565,192.53165249330002C227.53623188405797,187.1403621886,233.2246376811594,178.65674262369998,238.91304347826087,171.7603146025583C244.60144927536234,164.86388658141666,250.28985507246375,159.55465010403333,255.97826086956522,156.77564455256666C261.6666666666667,153.99663900109996,267.3550724637681,153.74786437554997,273.04347826086956,150.66319133109997C278.731884057971,147.57851828664994,284.42028985507244,141.65794682329997,290.1086956521739,159.49820242734165C295.7971014492753,177.33845803138334,301.4855072463768,218.93954070281666,307.17391304347825,239.34465098500834C312.8623188405797,259.74976126720003,318.5507246376812,258.95889916015,324.2391304347826,259.768053583825C329.92753623188406,260.5772080075,335.6159420289855,262.9863789619,341.30434782608694,264.3261588559C346.99275362318843,265.6659387499,352.6811594202898,265.93632758350003,358.3695652173913,269.493423857025C364.05797101449275,273.05052013055,369.74637681159425,279.894323844,375.4347826086957,285.3555426335C381.1231884057972,290.816761423,386.81159420289856,294.89539528855,392.5,298.61285388877496C398.18840579710144,302.33031248899994,403.8768115942028,305.68659582389995,409.5652173913043,307.360486558275C415.25362318840575,309.03437729264994,420.94202898550725,309.0258754265,426.6304347826087,311.25433731329997C432.3188405797102,313.48279920010003,438.00724637681157,317.94822483984996,443.695652173913,322.5247065621675C449.3840579710145,327.101188284485,455.072463768116,331.78872608936996,460.7608695652175,334.98637649696747C466.4492753623188,338.184026904565,472.1376811594203,339.891789914875,477.82608695652175,342.73908019592415C483.5144927536232,345.58637047697334,489.2028985507247,349.5731880287617,494.89130434782606,351.6143734456725C500.57971014492756,353.65555886258335,506.268115942029,353.7511121446167,511.9565217391305,354.5542428864842C517.6449275362319,355.3573736283517,523.3333333333334,356.8680818300533,529.0217391304348,357.8507662827533C534.7101449275361,358.83345073545337,540.3985507246376,359.28811143915163,546.0869565217391,359.54658280662585C551.7753623188406,359.8050541741,557.463768115942,359.86733620535,563.1521739130435,359.9009579852075C568.8405797101449,359.93457976506505,574.5289855072464,359.93954129353,580.2173913043479,359.94859987245246C585.9057971014493,359.957658451375,591.5942028985507,359.970814080755,597.2826086956522,359.9800636104225C602.9710144927536,359.98931314008996,608.6594202898551,359.994656570045,614.3478260869565,359.99732828502255C620.036231884058,360,625.7246376811594,360,631.4130434782609,360C637.1014492753624,360,642.7898550724639,360,648.4782608695652,360C654.1666666666666,360,659.8550724637681,360,665.5434782608695,360C671.231884057971,360,676.9202898550724,360,682.6086956521739,360C688.2971014492754,360,693.9855072463769,360,699.6739130434784,360C705.3623188405796,360,711.0507246376811,360,716.7391304347826,360C722.427536231884,360,728.1159420289855,360,733.804347826087,360C739.4927536231885,360,745.18115942029,360,750.8695652173914,360C756.5579710144929,360,762.2463768115941,360,767.9347826086956,360C773.623188405797,360,779.3115942028985,360,782.1557971014494,360L785,360L785,360L782.1557971014494,360C779.3115942028985,360,773.623188405797,360,767.9347826086956,360C762.2463768115941,360,756.5579710144929,360,750.8695652173914,360C745.18115942029,360,739.4927536231885,360,733.804347826087,360C728.1159420289855,360,722.427536231884,360,716.7391304347826,360C711.0507246376811,360,705.3623188405796,360,699.6739130434781,360C693.9855072463769,360,688.2971014492754,360,682.6086956521739,360C676.9202898550724,360,671.231884057971,360,665.5434782608695,360C659.8550724637681,360,654.1666666666666,360,648.4782608695652,360C642.7898550724639,360,637.1014492753624,360,631.4130434782609,360C625.7246376811594,360,620.036231884058,360,614.3478260869565,360C608.6594202898551,360,602.9710144927536,360,597.2826086956521,360C591.5942028985507,360,585.9057971014493,360,580.2173913043478,360C574.5289855072464,360,568.8405797101449,360,563.1521739130435,360C557.463768115942,360,551.7753623188406,360,546.0869565217391,359.80998720707584C540.3985507246376,359.6199744141516,534.7101449275361,359.23994882830334,529.0217391304348,358.58988928482836C523.3333333333334,357.9398297413533,517.6449275362319,357.0197362402517,511.95652173913044,356.88178681618416C506.268115942029,356.74383739211663,500.57971014492756,357.3880320450833,494.8913043478262,356.28283761717245C489.2028985507247,355.1776431892617,483.5144927536232,352.32305968047336,477.82608695652175,351.07095240995665C472.1376811594203,349.81884513944004,466.4492753623188,350.16921410719493,460.76086956521743,349.91693434302243C455.072463768116,349.66465457884993,449.3840579710145,348.80972608275005,443.695652173913,347.8304426219C438.00724637681157,346.85115916105,432.3188405797102,345.74752073545005,426.63043478260875,345.857514445975C420.94202898550725,345.96750815650006,415.25362318840575,347.29113400315003,409.5652173913043,348.211983082775C403.8768115942028,349.1328321624,398.18840579710144,349.650904475,392.5,349.990088041775C386.81159420289856,350.32927160855,381.1231884057972,350.4895664295,375.4347826086957,350.51774577550003C369.74637681159425,350.5459251215,364.05797101449275,350.44198899254997,358.3695652173913,350.4502086452749C352.6811594202898,350.45842829799994,346.99275362318843,350.57880373240005,341.30434782608694,350.77476487714995C335.6159420289855,350.9707260219,329.92753623188406,351.24227287700006,324.2391304347826,351.46704459807506C318.5507246376812,351.69181631915006,312.8623188405797,351.86981290619997,307.17391304347825,334.1487957252583C301.4855072463768,316.42777854431665,295.7971014492753,280.8077475953833,290.1086956521739,265.9648435548416C284.42028985507244,251.12193951429995,278.731884057971,257.05616238215,273.04347826086956,260.4974562756C267.3550724637681,263.93875016905,261.6666666666667,264.8871150881,255.97826086956525,266.15005198001666C250.28985507246375,267.41298887193335,244.60144927536234,268.99049773671663,238.91304347826087,271.8646459486083C233.2246376811594,274.7387941605,227.53623188405797,278.9095817195,221.84782608695653,281.89266781625C216.15942028985503,284.875753913,210.4710144927536,286.6711385475,204.78260869565213,287.15736648875003C199.09420289855072,287.64359443,193.40579710144928,286.820665678,187.71739130434784,298.4658711416417C182.02898550724638,310.11107660528336,176.3405797101449,334.22441628456664,170.65217391304347,346.3914601302333C164.96376811594203,358.5585039759,159.2753623188406,358.77925198795,153.58695652173913,359.0562926606417C147.89855072463766,359.3333333333333,142.21014492753622,359.6666666666667,136.52173913043478,359.8333333333333C130.83333333333334,360,125.14492753623188,360,119.45652173913044,360C113.76811594202898,360,108.07971014492755,360,102.39130434782608,360C96.70289855072463,360,91.01449275362319,360,85.32608695652173,360C79.6376811594203,360,73.94927536231883,360,68.26086956521739,360C62.57246376811594,360,56.88405797101449,360,51.19565217391304,360C45.507246376811594,360,39.81884057971015,360,34.130434782608695,360C28.442028985507246,360,22.753623188405797,360,17.065217391304348,360C11.376811594202898,360,5.688405797101449,360,2.8442028985507246,360L0,360Z"
             id="path135">
            <title
               id="title133">Tape</title>
          </path>
          <path
             fill="#1f77b4"
             d="M0,360L2.8442028985507246,360C5.688405797101449,360,11.376811594202898,360,17.065217391304348,360C22.753623188405797,360,28.442028985507246,360,34.130434782608695,360C39.81884057971015,360,45.507246376811594,360,51.19565217391304,360C56.88405797101449,360,62.57246376811594,360,68.26086956521739,360C73.94927536231883,360,79.6376811594203,360,85.32608695652173,360C91.01449275362319,360,96.70289855072463,360,102.39130434782608,360C108.07971014492755,360,113.76811594202898,360,119.45652173913044,360C125.14492753623188,360,130.83333333333334,360,136.52173913043478,360C142.21014492753622,360,147.89855072463766,360,153.58695652173913,359.889625993975C159.2753623188406,359.77925198795,164.96376811594203,359.5585039759,170.65217391304347,358.9230523854C176.3405797101449,358.2876007949,182.02898550724638,357.23744562595,187.71739130434784,355.03419506172503C193.40579710144928,352.8309444975,199.09420289855072,349.474598538,204.78260869565216,344.686086266C210.4710144927536,339.89757399399997,216.15942028985503,333.6768954095,221.8478260869565,321.2518544133333C227.53623188405797,308.82681341716665,233.2246376811594,290.1974100093333,238.91304347826087,280.093953873025C244.60144927536234,269.99049773671663,250.28985507246375,268.41298887193335,255.97826086956522,267.15005198001666C261.6666666666667,265.8871150881,267.3550724637681,264.93875016905,273.04347826086956,261.4974562756C278.731884057971,258.05616238215,284.42028985507244,252.12193951429995,290.1086956521739,230.8601779974833C295.7971014492753,209.59841648066663,301.4855072463768,173.00911631488327,307.17391304347825,150.36862194049164C312.8623188405797,127.72812756609999,318.5507246376812,119.03643898310001,324.2391304347826,111.36237014715C329.92753623188406,103.68830131120002,335.6159420289855,97.03185222230002,341.30434782608694,86.09536758552501C346.99275362318843,75.15888294875,352.6811594202898,59.94236276409998,358.3695652173913,52.71032481952498C364.05797101449275,45.47828687494998,369.74637681159425,46.230731170449985,375.4347826086957,47.21916297197499C381.1231884057972,48.2075947735,386.81159420289856,49.43201408105,392.5,52.372145626025C398.18840579710144,55.312277171000005,403.8768115942028,59.96812095340001,409.5652173913043,57.26212655152502C415.25362318840575,54.55613214965001,420.94202898550725,44.488299563500014,426.6304347826087,37.26504800855002C432.3188405797102,30.041796453600025,438.00724637681157,25.663125929850036,443.695652173913,26.262122285917528C449.3840579710145,26.86111864198502,455.072463768116,32.43778187786999,460.7608695652175,38.78122168371749C466.4492753623188,45.12466148956499,472.1376811594203,52.23487786537502,477.82608695652175,60.57815896930753C483.5144927536232,68.92144007324003,489.2028985507247,78.497785905295,494.89130434782606,86.59615324406417C500.57971014492756,94.69452058283332,506.268115942029,101.31490942831665,511.9565217391305,104.0329507556183C517.6449275362319,106.75099208291998,523.3333333333334,105.56668589203996,529.0217391304348,106.52397535104245C534.7101449275361,107.48126481004495,540.3985507246376,110.58014991892996,546.0869565217391,115.06802597210496C551.7753623188406,119.55590202527998,557.463768115942,125.43276902274499,563.1521739130435,132.8143246747525C568.8405797101449,140.19588032676,574.5289855072464,149.08212463331,580.2173913043479,160.30928749486C585.9057971014493,171.53645035641,591.5942028985507,185.10453177295997,597.2826086956522,194.77991218770913C602.9710144927536,204.45529260245834,608.6594202898551,210.23797201540665,614.3478260869565,215.90110033934334C620.036231884058,221.56422866328,625.7246376811594,227.10780589820502,631.4130434782609,230.16257730167752C637.1014492753624,233.21734870515002,642.7898550724639,233.78331427717,648.4782608695652,243.37425635449415C654.1666666666666,252.96519843181832,659.8550724637681,271.58111701444665,665.5434782608695,280.73349832212585C671.231884057971,289.885879629805,676.9202898550724,289.574723662535,682.6086956521739,294.6275421148417C688.2971014492754,299.68036056714834,693.9855072463769,310.0971534390317,699.6739130434784,315.9743369415608C705.3623188405796,321.85152044409,711.0507246376811,323.189094577265,716.7391304347826,324.7229984166275C722.427536231884,326.25690225599,728.1159420289855,327.98713580154,733.804347826087,329.05560206409496C739.4927536231885,330.12406832664993,745.18115942029,330.53076730620995,750.8695652173914,331.5735225309125C756.5579710144929,332.616277755615,762.2463768115941,334.29508922546,767.9347826086956,335.240183990395C773.623188405797,336.18527875533,779.3115942028985,336.396656815355,782.1557971014494,336.5023458453675L785,336.60803487538L785,345.83490629143L782.1557971014494,345.97159160436496C779.3115942028985,346.1082769173,773.623188405797,346.38164754317,767.9347826086956,346.66175025917255C762.2463768115941,346.941852975175,756.5579710144929,347.22868778131004,750.8695652173914,347.420905550895C745.18115942029,347.61312332047993,739.4927536231885,347.710724053515,733.804347826087,347.781873558735C728.1159420289855,347.85302306395494,722.427536231884,347.89772134136,716.7391304347826,348.15601976719495C711.0507246376811,348.41431819302994,705.3623188405796,348.886216767295,699.6739130434781,344.9896397956483C693.9855072463769,341.09306282400166,688.2971014492754,332.82801030644333,682.6086956521739,329.89998596136166C676.9202898550724,326.97196161628,671.231884057971,329.380965443675,665.5434782608695,323.16989982957335C659.8550724637681,316.95883421547165,654.1666666666666,302.1276991598733,648.4782608695652,295.55273243230414C642.7898550724639,288.977765704735,637.1014492753624,290.65896730519506,631.4130434782609,291.66247951871253C625.7246376811594,292.66599173223,620.036231884058,292.99181455880506,614.3478260869565,293.6420969167908C608.6594202898551,294.2923792747767,602.9710144927536,295.26712116417326,597.2826086956521,295.73438059116165C591.5942028985507,296.20164001814993,585.9057971014493,296.16141698273003,580.2173913043478,298.42898071824C574.5289855072464,300.69654445375,568.8405797101449,305.27189496018997,563.1521739130435,309.3618731117075C557.463768115942,313.451851263225,551.7753623188406,317.05645705981993,546.0869565217391,321.648424631825C540.3985507246376,326.24039220382997,534.7101449275361,331.819721551245,529.0217391304348,335.6004403180175C523.3333333333334,339.38115908479,517.6449275362319,341.36326727092,511.95652173913044,342.66861032969337C506.268115942029,343.97395338846667,500.57971014492756,344.6025313198833,494.8913043478262,344.1448942312392C489.2028985507247,343.687257142595,483.5144927536232,342.14340503389,477.82608695652175,340.5175974743825C472.1376811594203,338.891789914875,466.4492753623188,337.184026904565,460.76086956521743,333.98637649696747C455.072463768116,330.78872608936996,449.3840579710145,326.101188284485,443.695652173913,321.5247065621675C438.00724637681157,316.94822483984996,432.3188405797102,312.48279920010003,426.63043478260875,310.25433731329997C420.94202898550725,308.0258754265,415.25362318840575,308.03437729264994,409.5652173913043,306.360486558275C403.8768115942028,304.68659582389995,398.18840579710144,301.33031248899994,392.5,297.61285388877496C386.81159420289856,293.89539528855,381.1231884057972,289.816761423,375.4347826086957,284.35554263349997C369.74637681159425,278.894323844,364.05797101449275,272.05052013055,358.3695652173913,268.493423857025C352.6811594202898,264.93632758350003,346.99275362318843,264.6659387499,341.30434782608694,263.3261588559C335.6159420289855,261.9863789619,329.92753623188406,259.5772080075,324.2391304347826,258.76805358382506C318.5507246376812,257.95889916015,312.8623188405797,258.74976126720003,307.17391304347825,273.8278877287667C301.4855072463768,288.90601419033334,295.7971014492753,318.27140500641667,290.1086956521739,332.3510081732083C284.42028985507244,346.43061134,278.731884057971,345.2244268575,273.04347826086956,343.10164492175C267.3550724637681,340.97886298599997,261.6666666666667,337.939483597,255.97826086956525,334.8304433164166C250.28985507246375,331.7214030358333,244.60144927536234,328.54270186366665,238.91304347826087,332.726017829C233.2246376811594,336.90933379433335,227.53623188405797,348.45466689716665,221.84782608695653,354.22733344858335C216.15942028985503,360,210.4710144927536,360,204.78260869565213,360C199.09420289855072,360,193.40579710144928,360,187.71739130434784,360C182.02898550724638,360,176.3405797101449,360,170.65217391304347,360C164.96376811594203,360,159.2753623188406,360,153.58695652173913,360C147.89855072463766,360,142.21014492753622,360,136.52173913043478,360C130.83333333333334,360,125.14492753623188,360,119.45652173913044,360C113.76811594202898,360,108.07971014492755,360,102.39130434782608,360C96.70289855072463,360,91.01449275362319,360,85.32608695652173,360C79.6376811594203,360,73.94927536231883,360,68.26086956521739,360C62.57246376811594,360,56.88405797101449,360,51.19565217391304,360C45.507246376811594,360,39.81884057971015,360,34.130434782608695,360C28.442028985507246,360,22.753623188405797,360,17.065217391304348,360C11.376811594202898,360,5.688405797101449,360,2.8442028985507246,360L0,360Z"
             id="path139">
            <title
               id="title137">Disc</title>
          </path>
          <path
             fill="#ff7f0e"
             d="M0,360L2.8442028985507246,360C5.688405797101449,360,11.376811594202898,360,17.065217391304348,360C22.753623188405797,360,28.442028985507246,360,34.130434782608695,360C39.81884057971015,360,45.507246376811594,360,51.19565217391304,360C56.88405797101449,360,62.57246376811594,360,68.26086956521739,360C73.94927536231883,360,79.6376811594203,360,85.32608695652173,360C91.01449275362319,360,96.70289855072463,360,102.39130434782608,360C108.07971014492755,360,113.76811594202898,360,119.45652173913044,360C125.14492753623188,360,130.83333333333334,360,136.52173913043478,359.8333333333333C142.21014492753622,359.6666666666667,147.89855072463766,359.3333333333333,153.58695652173913,359.3333333333333C159.2753623188406,359.3333333333333,164.96376811594203,359.6666666666667,170.65217391304347,359.8333333333333C176.3405797101449,360,182.02898550724638,360,187.71739130434784,360C193.40579710144928,360,199.09420289855072,360,204.78260869565216,360C210.4710144927536,360,216.15942028985503,360,221.8478260869565,360C227.53623188405797,360,233.2246376811594,360,238.91304347826087,360C244.60144927536234,360,250.28985507246375,360,255.97826086956522,360C261.6666666666667,360,267.3550724637681,360,273.04347826086956,360C278.731884057971,360,284.42028985507244,360,290.1086956521739,360C295.7971014492753,360,301.4855072463768,360,307.17391304347825,360C312.8623188405797,360,318.5507246376812,360,324.2391304347826,360C329.92753623188406,360,335.6159420289855,360,341.30434782608694,360C346.99275362318843,360,352.6811594202898,360,358.3695652173913,360C364.05797101449275,360,369.74637681159425,360,375.4347826086957,360C381.1231884057972,360,386.81159420289856,360,392.5,360C398.18840579710144,360,403.8768115942028,360,409.5652173913043,360C415.25362318840575,360,420.94202898550725,360,426.6304347826087,360C432.3188405797102,360,438.00724637681157,360,443.695652173913,360C449.3840579710145,360,455.072463768116,360,460.7608695652175,360C466.4492753623188,360,472.1376811594203,360,477.82608695652175,360C483.5144927536232,360,489.2028985507247,360,494.89130434782606,360C500.57971014492756,360,506.268115942029,360,511.9565217391305,358.64296032149247C517.6449275362319,357.285920642985,523.3333333333334,354.5718412859699,529.0217391304348,348.1820184287058C534.7101449275361,341.79219557144165,540.3985507246376,331.72662921392833,546.0869565217391,324.89154313687413C551.7753623188406,318.05645705981993,557.463768115942,314.451851263225,563.1521739130435,310.3618731117075C568.8405797101449,306.27189496018997,574.5289855072464,301.69654445375,580.2173913043479,299.42898071824C585.9057971014493,297.16141698273003,591.5942028985507,297.20164001814993,597.2826086956522,296.73438059116165C602.9710144927536,296.26712116417326,608.6594202898551,295.2923792747767,614.3478260869565,294.6420969167908C620.036231884058,293.99181455880506,625.7246376811594,293.66599173223,631.4130434782609,292.66247951871253C637.1014492753624,291.65896730519506,642.7898550724639,289.977765704735,648.4782608695652,280.8906845762883C654.1666666666666,271.8036034478417,659.8550724637681,255.31064279140833,665.5434782608695,247.29298548893166C671.231884057971,239.275328186455,676.9202898550724,239.732974237935,682.6086956521739,241.1889361914C688.2971014492754,242.644898144865,693.9855072463769,245.099176000315,699.6739130434784,252.75754707250417C705.3623188405796,260.4159181446933,711.0507246376811,273.27838243362163,716.7391304347826,281.8884102397083C722.427536231884,290.498438045795,728.1159420289855,294.85602936904,733.804347826087,298.49924800562C739.4927536231885,302.1424666422,745.18115942029,305.071312592115,750.8695652173914,308.391630340665C756.5579710144929,311.711948089215,762.2463768115941,315.4237376364,767.9347826086956,317.889700159845C773.623188405797,320.35566268329,779.3115942028985,321.575798182995,782.1557971014494,322.18586593284755L785,322.7959336827L785,335.60803487538L782.1557971014494,335.5023458453675C779.3115942028985,335.396656815355,773.623188405797,335.18527875533,767.9347826086956,334.240183990395C762.2463768115941,333.29508922546,756.5579710144929,331.616277755615,750.8695652173914,330.5735225309125C745.18115942029,329.53076730620995,739.4927536231885,329.12406832664993,733.804347826087,328.05560206409496C728.1159420289855,326.98713580154,722.427536231884,325.25690225599,716.7391304347826,318.6225240929608C711.0507246376811,311.9881459299317,705.3623188405796,300.44962314942336,699.6739130434781,294.57243964689417C693.9855072463769,288.69525614436503,688.2971014492754,288.479411919815,682.6086956521739,288.527067791175C676.9202898550724,288.574723662535,671.231884057971,288.885879629805,665.5434782608695,297.1365642012067C659.8550724637681,305.3872487726083,654.1666666666666,321.57746194814166,648.4782608695652,330.1625911000133C642.7898550724639,338.74772025188497,637.1014492753624,339.727765380095,631.4130434782609,340.4106884139875C625.7246376811594,341.09361144788,620.036231884058,341.47941238745506,614.3478260869565,342.20837587846586C608.6594202898551,342.93733936947666,602.9710144927536,344.0094654119234,597.2826086956521,343.92832044126163C591.5942028985507,343.8471754706,585.9057971014493,342.61275948683004,580.2173913043478,342.13811216469C574.5289855072464,341.66346484255,568.8405797101449,341.94858618204006,563.1521739130435,341.68725452665745C557.463768115942,341.42592287127496,551.7753623188406,340.61813822102,546.0869565217391,342.8430189075992C540.3985507246376,345.0678995941783,534.7101449275361,350.32544561759164,529.0217391304348,353.6903866891309C523.3333333333334,357.05532776067,517.6449275362319,358.527663880335,511.95652173913044,359.26383194016745C506.268115942029,360,500.57971014492756,360,494.8913043478262,360C489.2028985507247,360,483.5144927536232,360,477.82608695652175,360C472.1376811594203,360,466.4492753623188,360,460.76086956521743,360C455.072463768116,360,449.3840579710145,360,443.695652173913,360C438.00724637681157,360,432.3188405797102,360,426.63043478260875,360C420.94202898550725,360,415.25362318840575,360,409.5652173913043,360C403.8768115942028,360,398.18840579710144,360,392.5,360C386.81159420289856,360,381.1231884057972,360,375.4347826086957,360C369.74637681159425,360,364.05797101449275,360,358.3695652173913,360C352.6811594202898,360,346.99275362318843,360,341.30434782608694,360C335.6159420289855,360,329.92753623188406,360,324.2391304347826,360C318.5507246376812,360,312.8623188405797,360,307.17391304347825,360C301.4855072463768,360,295.7971014492753,360,290.1086956521739,360C284.42028985507244,360,278.731884057971,360,273.04347826086956,360C267.3550724637681,360,261.6666666666667,360,255.97826086956525,360C250.28985507246375,360,244.60144927536234,360,238.91304347826087,360C233.2246376811594,360,227.53623188405797,360,221.84782608695653,360C216.15942028985503,360,210.4710144927536,360,204.78260869565213,360C199.09420289855072,360,193.40579710144928,360,187.71739130434784,360C182.02898550724638,360,176.3405797101449,360,170.65217391304347,359.8333333333333C164.96376811594203,359.6666666666667,159.2753623188406,359.3333333333333,153.58695652173913,359.3333333333333C147.89855072463766,359.3333333333333,142.21014492753622,359.6666666666667,136.52173913043478,359.8333333333333C130.83333333333334,360,125.14492753623188,360,119.45652173913044,360C113.76811594202898,360,108.07971014492755,360,102.39130434782608,360C96.70289855072463,360,91.01449275362319,360,85.32608695652173,360C79.6376811594203,360,73.94927536231883,360,68.26086956521739,360C62.57246376811594,360,56.88405797101449,360,51.19565217391304,360C45.507246376811594,360,39.81884057971015,360,34.130434782608695,360C28.442028985507246,360,22.753623188405797,360,17.065217391304348,360C11.376811594202898,360,5.688405797101449,360,2.8442028985507246,360L0,360Z"
             id="path143">
            <title
               id="title141">Download</title>
          </path>
          <path
             fill="#2ca02c"
             d="M0,360L2.8442028985507246,360C5.688405797101449,360,11.376811594202898,360,17.065217391304348,360C22.753623188405797,360,28.442028985507246,360,34.130434782608695,360C39.81884057971015,360,45.507246376811594,360,51.19565217391304,360C56.88405797101449,360,62.57246376811594,360,68.26086956521739,360C73.94927536231883,360,79.6376811594203,360,85.32608695652173,360C91.01449275362319,360,96.70289855072463,360,102.39130434782608,360C108.07971014492755,360,113.76811594202898,360,119.45652173913044,360C125.14492753623188,360,130.83333333333334,360,136.52173913043478,359.8333333333333C142.21014492753622,359.6666666666667,147.89855072463766,359.3333333333333,153.58695652173913,359.3333333333333C159.2753623188406,359.3333333333333,164.96376811594203,359.6666666666667,170.65217391304347,359.8333333333333C176.3405797101449,360,182.02898550724638,360,187.71739130434784,360C193.40579710144928,360,199.09420289855072,360,204.78260869565216,360C210.4710144927536,360,216.15942028985503,360,221.8478260869565,360C227.53623188405797,360,233.2246376811594,360,238.91304347826087,360C244.60144927536234,360,250.28985507246375,360,255.97826086956522,359.40518512499995C261.6666666666667,358.81037025,267.3550724637681,357.6207405,273.04347826086956,356.77816779349996C278.731884057971,355.93559508699997,284.42028985507244,355.44007942400003,290.1086956521739,354.87619588120833C295.7971014492753,354.3123123384167,301.4855072463768,353.68006091583334,307.17391304347825,353.2749369110167C312.8623188405797,352.86981290619997,318.5507246376812,352.69181631915006,324.2391304347826,352.46704459807506C329.92753623188406,352.24227287700006,335.6159420289855,351.9707260219,341.30434782608694,351.77476487715006C346.99275362318843,351.57880373240005,352.6811594202898,351.45842829799994,358.3695652173913,351.45020864527504C364.05797101449275,351.44198899254997,369.74637681159425,351.5459251215,375.4347826086957,351.51774577550003C381.1231884057972,351.4895664295,386.81159420289856,351.32927160855,392.5,350.990088041775C398.18840579710144,350.650904475,403.8768115942028,350.1328321624,409.5652173913043,349.211983082775C415.25362318840575,348.29113400315003,420.94202898550725,346.96750815650006,426.6304347826087,346.857514445975C432.3188405797102,346.74752073545005,438.00724637681157,347.85115916105,443.695652173913,348.8304426219C449.3840579710145,349.80972608275005,455.072463768116,350.66465457884993,460.7608695652175,350.91693434302243C466.4492753623188,351.16921410719493,472.1376811594203,350.81884513944004,477.82608695652175,349.9374328354983C483.5144927536232,349.05602053155667,489.2028985507247,347.6435648914283,494.89130434782606,346.62304810565587C500.57971014492756,345.6025313198833,506.268115942029,344.97395338846667,511.9565217391305,343.66861032969337C517.6449275362319,342.36326727092,523.3333333333334,340.38115908479,529.0217391304348,339.7919887704092C534.7101449275361,339.20281845602835,540.3985507246376,340.00658601339666,546.0869565217391,340.81236211720835C551.7753623188406,341.61813822102,557.463768115942,342.42592287127496,563.1521739130435,342.68725452665757C568.8405797101449,342.94858618204006,574.5289855072464,342.66346484255,580.2173913043479,344.2588779358567C585.9057971014493,345.85429102916333,591.5942028985507,349.3302385552667,597.2826086956522,349.41138352592833C602.9710144927536,349.49252849659,608.6594202898551,346.17887091181,614.3478260869565,345.8488010245492C620.036231884058,345.51873113728834,625.7246376811594,348.1722489475467,631.4130434782609,349.51313401857084C637.1014492753624,350.85401908959494,642.7898550724639,350.882271421385,648.4782608695652,350.9181246747625C654.1666666666666,350.95397792814,659.8550724637681,350.997432103105,665.5434782608695,350.93034951514C671.231884057971,350.86326692717495,676.9202898550724,350.68564757627996,682.6086956521739,350.571852420195C688.2971014492754,350.45805726411,693.9855072463769,350.408086302835,699.6739130434784,351.2283270846142C705.3623188405796,352.04856786639334,711.0507246376811,353.73902039122663,716.7391304347826,354.6069041380458C722.427536231884,355.47478788486495,728.1159420289855,355.5201028536699,733.804347826087,355.5633238527175C739.4927536231885,355.60654485176497,745.18115942029,355.647671881055,750.8695652173914,355.57645456384995C756.5579710144929,355.505237246645,762.2463768115941,355.32167558294503,767.9347826086956,355.27365564600996C773.623188405797,355.225635709075,779.3115942028985,355.31315749890496,782.1557971014494,355.35691839381997L785,355.400679288735L785,360L782.1557971014494,360C779.3115942028985,360,773.623188405797,360,767.9347826086956,360C762.2463768115941,360,756.5579710144929,360,750.8695652173914,360C745.18115942029,360,739.4927536231885,360,733.804347826087,360C728.1159420289855,360,722.427536231884,360,716.7391304347826,359.16014566737584C711.0507246376811,358.32029133475163,705.3623188405796,356.6405826695033,699.6739130434781,355.8875577938741C693.9855072463769,355.134532918245,688.2971014492754,355.308191832235,682.6086956521739,355.5207558500825C676.9202898550724,355.73331986793,671.231884057971,355.98478898963504,665.5434782608695,356.2188131434675C659.8550724637681,356.4528372973,654.1666666666666,356.66941648326,648.4782608695652,356.862724414325C642.7898550724639,357.05603234538995,637.1014492753624,357.22606902156,631.4130434782609,356.13665104028587C625.7246376811594,355.0472330590117,620.036231884058,352.69836042029334,614.3478260869565,352.6194108526692C608.6594202898551,352.540461285045,602.9710144927536,354.73143478851506,597.2826086956521,354.9145922072459C591.5942028985507,355.09774962597663,585.9057971014493,353.27309095996833,580.2173913043478,352.43541808602913C574.5289855072464,351.59774521208993,568.8405797101449,351.74705813022,563.1521739130435,351.98474215256005C557.463768115942,352.2224261749,551.7753623188406,352.54848130145,546.0869565217391,352.37537978155086C540.3985507246376,352.20227826165166,534.7101449275361,351.5300200953033,529.0217391304348,351.5253749284116C523.3333333333334,351.52072976152,517.6449275362319,352.183697594085,511.95652173913044,352.4674048693508C506.268115942029,352.7511121446167,500.57971014492756,352.65555886258335,494.8913043478262,353.46890920978336C489.2028985507247,354.2822595569833,483.5144927536232,356.0045135334167,477.82608695652175,356.8774179749833C472.1376811594203,357.75032241655,466.4492753623188,357.77387732324996,460.76086956521743,357.75705028180005C455.072463768116,357.74022324034996,449.3840579710145,357.68301425075,443.695652173913,357.6493513704001C438.00724637681157,357.61568849005,432.3188405797102,357.60557171895,426.63043478260875,357.56023085297505C420.94202898550725,357.51488998700006,415.25362318840575,357.43432502614996,409.5652173913043,357.325014257275C403.8768115942028,357.21570348840004,398.18840579710144,357.07764691150004,392.5,357.05090191702493C386.81159420289856,357.02415692255,381.1231884057972,357.10872351049994,375.4347826086957,357.1717994635C369.74637681159425,357.23487541649996,364.05797101449275,357.27646073454997,358.3695652173913,357.304229525525C352.6811594202898,357.3319983165,346.99275362318843,357.34595058040003,341.30434782608694,357.26228845664997C335.6159420289855,357.17862633289997,329.92753623188406,356.99734982149994,324.2391304347826,356.832872656825C318.5507246376812,356.66839549215,312.8623188405797,356.52071767419994,307.17391304347825,357.0513721225166C301.4855072463768,357.5820265708333,295.7971014492753,358.7910132854167,290.1086956521739,359.39550664270837C284.42028985507244,360,278.731884057971,360,273.04347826086956,360C267.3550724637681,360,261.6666666666667,360,255.97826086956525,360C250.28985507246375,360,244.60144927536234,360,238.91304347826087,360C233.2246376811594,360,227.53623188405797,360,221.84782608695653,360C216.15942028985503,360,210.4710144927536,360,204.78260869565213,360C199.09420289855072,360,193.40579710144928,360,187.71739130434784,360C182.02898550724638,360,176.3405797101449,360,170.65217391304347,359.8333333333333C164.96376811594203,359.6666666666667,159.2753623188406,359.3333333333333,153.58695652173913,359.3333333333333C147.89855072463766,359.3333333333333,142.21014492753622,359.6666666666667,136.52173913043478,359.8333333333333C130.83333333333334,360,125.14492753623188,360,119.45652173913044,360C113.76811594202898,360,108.07971014492755,360,102.39130434782608,360C96.70289855072463,360,91.01449275362319,360,85.32608695652173,360C79.6376811594203,360,73.94927536231883,360,68.26086956521739,360C62.57246376811594,360,56.88405797101449,360,51.19565217391304,360C45.507246376811594,360,39.81884057971015,360,34.130434782608695,360C28.442028985507246,360,22.753623188405797,360,17.065217391304348,360C11.376811594202898,360,5.688405797101449,360,2.8442028985507246,360L0,360Z"
             id="path147">
            <title
               id="title145">Other</title>
          </path>
          <path
             fill="#d62728"
             d="M0,360L2.8442028985507246,360C5.688405797101449,360,11.376811594202898,360,17.065217391304348,360C22.753623188405797,360,28.442028985507246,360,34.130434782608695,360C39.81884057971015,360,45.507246376811594,360,51.19565217391304,360C56.88405797101449,360,62.57246376811594,360,68.26086956521739,360C73.94927536231883,360,79.6376811594203,360,85.32608695652173,360C91.01449275362319,360,96.70289855072463,360,102.39130434782608,360C108.07971014492755,360,113.76811594202898,360,119.45652173913044,360C125.14492753623188,360,130.83333333333334,360,136.52173913043478,359.8333333333333C142.21014492753622,359.6666666666667,147.89855072463766,359.3333333333333,153.58695652173913,359.3333333333333C159.2753623188406,359.3333333333333,164.96376811594203,359.6666666666667,170.65217391304347,359.8333333333333C176.3405797101449,360,182.02898550724638,360,187.71739130434784,360C193.40579710144928,360,199.09420289855072,360,204.78260869565216,360C210.4710144927536,360,216.15942028985503,360,221.8478260869565,360C227.53623188405797,360,233.2246376811594,360,238.91304347826087,359.8333333333333C244.60144927536234,359.6666666666667,250.28985507246375,359.3333333333333,255.97826086956522,359.3333333333333C261.6666666666667,359.3333333333333,267.3550724637681,359.6666666666667,273.04347826086956,359.8333333333333C278.731884057971,360,284.42028985507244,360,290.1086956521739,360C295.7971014492753,360,301.4855072463768,360,307.17391304347825,360C312.8623188405797,360,318.5507246376812,360,324.2391304347826,360C329.92753623188406,360,335.6159420289855,360,341.30434782608694,360C346.99275362318843,360,352.6811594202898,360,358.3695652173913,360C364.05797101449275,360,369.74637681159425,360,375.4347826086957,360C381.1231884057972,360,386.81159420289856,360,392.5,360C398.18840579710144,360,403.8768115942028,360,409.5652173913043,360C415.25362318840575,360,420.94202898550725,360,426.6304347826087,360C432.3188405797102,360,438.00724637681157,360,443.695652173913,360C449.3840579710145,360,455.072463768116,360,460.7608695652175,360C466.4492753623188,360,472.1376811594203,360,477.82608695652175,360C483.5144927536232,360,489.2028985507247,360,494.89130434782606,359.8333333333333C500.57971014492756,359.6666666666667,506.268115942029,359.3333333333333,511.9565217391305,359.30998720707584C517.6449275362319,359.2866410808183,523.3333333333334,359.57328216163666,529.0217391304348,358.71903823297C534.7101449275361,357.86479430430336,540.3985507246376,355.86966536615165,546.0869565217391,354.70907333380086C551.7753623188406,353.54848130145,557.463768115942,353.2224261749,563.1521739130435,352.98474215256005C568.8405797101449,352.74705813022,574.5289855072464,352.59774521208993,580.2173913043479,351.4619486130933C585.9057971014493,350.32615201409664,591.5942028985507,348.20387173423336,597.2826086956522,348.0207143155025C602.9710144927536,347.83755689677173,608.6594202898551,349.5935223391734,614.3478260869565,348.8645588481625C620.036231884058,348.13559535715166,625.7246376811594,344.9217029327283,631.4130434782609,342.8247341564117C637.1014492753624,340.727765380095,642.7898550724639,339.74772025188497,648.4782608695652,338.2614133790125C654.1666666666666,336.77510650614,659.8550724637681,334.78253788860496,665.5434782608695,332.58175166614C671.231884057971,330.380965443675,676.9202898550724,327.97196161628,682.6086956521739,320.82548346592085C688.2971014492754,313.67900531556165,693.9855072463769,301.79505284223836,699.6739130434784,288.77142951568254C705.3623188405796,275.74780618912666,711.0507246376811,261.5845120093383,716.7391304347826,252.41724546461668C722.427536231884,243.24997891989497,728.1159420289855,239.07874001024,733.804347826087,234.23844686257C739.4927536231885,229.3981537149,745.18115942029,223.888806329215,750.8695652173914,219.009514458965C756.5579710144929,214.13022258871501,762.2463768115941,209.88098623390002,767.9347826086956,205.038789343845C773.623188405797,200.19659245379,779.3115942028985,194.76143502849501,782.1557971014494,192.0438563158475L785,189.3262776032L785,321.7959336827L782.1557971014494,321.18586593284755C779.3115942028985,320.575798182995,773.623188405797,319.35566268329,767.9347826086956,316.889700159845C762.2463768115941,314.4237376364,756.5579710144929,310.711948089215,750.8695652173914,307.391630340665C745.18115942029,304.071312592115,739.4927536231885,301.1424666422,733.804347826087,297.49924800562C728.1159420289855,293.85602936904,722.427536231884,289.498438045795,716.7391304347826,293.04849231556665C711.0507246376811,296.59854658533834,705.3623188405796,308.05624644812667,699.6739130434781,318.7841100319325C693.9855072463769,329.5119736157383,688.2971014492754,339.51000092056165,682.6086956521739,344.59782424842086C676.9202898550724,349.68564757627996,671.231884057971,349.86326692717495,665.5434782608695,349.93034951514C659.8550724637681,349.997432103105,654.1666666666666,349.95397792814,648.4782608695652,349.9181246747625C642.7898550724639,349.882271421385,637.1014492753624,349.85401908959494,631.4130434782609,351.1714127319117C625.7246376811594,352.4888063742283,620.036231884058,355.1518459906517,614.3478260869565,355.4819158779125C608.6594202898551,355.81198576517335,602.9710144927536,353.80908592327165,597.2826086956521,353.7477513430775C591.5942028985507,353.6864167628833,585.9057971014493,355.56664744439666,580.2173913043478,356.50605851789334C574.5289855072464,357.44546959139,568.8405797101449,357.44406105687,563.1521739130435,357.40370696446C557.463768115942,357.36335287205,551.7753623188406,357.28405322174996,546.0869565217391,357.71027780135836C540.3985507246376,358.1365023809667,534.7101449275361,359.06825119048335,529.0217391304348,359.367458928575C523.3333333333334,359.6666666666667,517.6449275362319,359.3333333333333,511.95652173913044,359.3333333333333C506.268115942029,359.3333333333333,500.57971014492756,359.6666666666667,494.8913043478262,359.8333333333333C489.2028985507247,360,483.5144927536232,360,477.82608695652175,360C472.1376811594203,360,466.4492753623188,360,460.76086956521743,360C455.072463768116,360,449.3840579710145,360,443.695652173913,360C438.00724637681157,360,432.3188405797102,360,426.63043478260875,360C420.94202898550725,360,415.25362318840575,360,409.5652173913043,360C403.8768115942028,360,398.18840579710144,360,392.5,360C386.81159420289856,360,381.1231884057972,360,375.4347826086957,360C369.74637681159425,360,364.05797101449275,360,358.3695652173913,360C352.6811594202898,360,346.99275362318843,360,341.30434782608694,360C335.6159420289855,360,329.92753623188406,360,324.2391304347826,360C318.5507246376812,360,312.8623188405797,360,307.17391304347825,360C301.4855072463768,360,295.7971014492753,360,290.1086956521739,360C284.42028985507244,360,278.731884057971,360,273.04347826086956,359.8333333333333C267.3550724637681,359.6666666666667,261.6666666666667,359.3333333333333,255.97826086956525,359.3333333333333C250.28985507246375,359.3333333333333,244.60144927536234,359.6666666666667,238.91304347826087,359.8333333333333C233.2246376811594,360,227.53623188405797,360,221.84782608695653,360C216.15942028985503,360,210.4710144927536,360,204.78260869565213,360C199.09420289855072,360,193.40579710144928,360,187.71739130434784,360C182.02898550724638,360,176.3405797101449,360,170.65217391304347,359.8333333333333C164.96376811594203,359.6666666666667,159.2753623188406,359.3333333333333,153.58695652173913,359.3333333333333C147.89855072463766,359.3333333333333,142.21014492753622,359.6666666666667,136.52173913043478,359.8333333333333C130.83333333333334,360,125.14492753623188,360,119.45652173913044,360C113.76811594202898,360,108.07971014492755,360,102.39130434782608,360C96.70289855072463,360,91.01449275362319,360,85.32608695652173,360C79.6376811594203,360,73.94927536231883,360,68.26086956521739,360C62.57246376811594,360,56.88405797101449,360,51.19565217391304,360C45.507246376811594,360,39.81884057971015,360,34.130434782608695,360C28.442028985507246,360,22.753623188405797,360,17.065217391304348,360C11.376811594202898,360,5.688405797101449,360,2.8442028985507246,360L0,360Z"
             id="path151">
            <title
               id="title149">Streaming</title>
          </path>
          <path
             fill="#8c564b"
             d="M0,184.82503168204997L2.8442028985507246,185.33651036422498C5.688405797101449,185.8479890464,11.376811594202898,186.87094641074998,17.065217391304348,187.52479439119998C22.753623188405797,188.17864237165,28.442028985507246,188.4633809682,34.130434782608695,186.23595054625002C39.81884057971015,184.00852012430002,45.507246376811594,179.26892068384998,51.19565217391304,170.721625774725C56.88405797101449,162.17433086559996,62.57246376811594,149.81934048779996,68.26086956521739,140.0651694964C73.94927536231883,130.31099850499996,79.6376811594203,123.15764689999997,85.32608695652173,127.72256569999998C91.01449275362319,132.28748449999998,96.70289855072463,148.57067370499996,102.39130434782608,160.51021650049998C108.07971014492755,172.449759296,113.76811594202898,180.045655682,119.45652173913044,184.46177885199998C125.14492753623188,188.87790202200003,130.83333333333334,190.11425197600002,136.52173913043478,194.47424398278335C142.21014492753622,198.83423598956665,147.89855072463766,206.31787004913335,153.58695652173913,209.79508737844165C159.2753623188406,213.27230470774998,164.96376811594203,212.7431053068,170.65217391304347,224.94247744301666C176.3405797101449,237.1418495792333,182.02898550724638,262.06979325261665,187.71739130434784,274.94522946530833C193.40579710144928,287.820665678,199.09420289855072,288.64359443,204.78260869565216,288.15736648875003C210.4710144927536,287.6711385475,216.15942028985503,285.875753913,221.8478260869565,292.0253334979167C227.53623188405797,298.17491308283337,233.2246376811594,312.26945688716665,238.91304347826087,320.90607937541665C244.60144927536234,329.54270186366665,250.28985507246375,332.7214030358333,255.97826086956522,335.8304433164166C261.6666666666667,338.939483597,267.3550724637681,341.97886298599997,273.04347826086956,344.10164492175C278.731884057971,346.2244268575,284.42028985507244,347.43061134,290.1086956521739,349.48974425354163C295.7971014492753,351.5488771670833,301.4855072463768,354.46095851166666,307.17391304347825,355.9908380929333C312.8623188405797,357.52071767419994,318.5507246376812,357.66839549215,324.2391304347826,357.832872656825C329.92753623188406,357.99734982149994,335.6159420289855,358.17862633289997,341.30434782608694,358.26228845664997C346.99275362318843,358.34595058040003,352.6811594202898,358.3319983165,358.3695652173913,358.304229525525C364.05797101449275,358.27646073454997,369.74637681159425,358.23487541649996,375.4347826086957,358.1717994635C381.1231884057972,358.10872351049994,386.81159420289856,358.02415692255,392.5,358.050901917025C398.18840579710144,358.07764691150004,403.8768115942028,358.21570348840004,409.5652173913043,358.325014257275C415.25362318840575,358.43432502614996,420.94202898550725,358.51488998700006,426.6304347826087,358.56023085297505C432.3188405797102,358.60557171895,438.00724637681157,358.61568849005,443.695652173913,358.6493513704001C449.3840579710145,358.68301425075,455.072463768116,358.74022324034996,460.7608695652175,358.75705028180005C466.4492753623188,358.77387732324996,472.1376811594203,358.75032241655,477.82608695652175,358.78945482790004C483.5144927536232,358.82858723925,489.2028985507247,358.93040696865,494.89130434782606,358.6592195068667C500.57971014492756,358.3880320450833,506.268115942029,357.74383739211663,511.9565217391305,357.33563154927583C517.6449275362319,356.92742570643503,523.3333333333334,356.75520867372,529.0217391304348,356.93939381243666C534.7101449275361,357.1235789511533,540.3985507246376,357.66416626130166,546.0869565217391,357.9741097415258C551.7753623188406,358.28405322174996,557.463768115942,358.36335287205,563.1521739130435,358.40370696446C568.8405797101449,358.44406105687,574.5289855072464,358.44546959139,580.2173913043479,358.35876221966254C585.9057971014493,358.27205484793495,591.5942028985507,358.09723156996,597.2826086956522,358.1585661501542C602.9710144927536,358.21990073034834,608.6594202898551,358.51739316871164,614.3478260869565,358.5963427363358C620.036231884058,358.67529230396,625.7246376811594,358.535699000845,631.4130434782609,358.38088401120257C637.1014492753624,358.22606902156,642.7898550724639,358.05603234538995,648.4782608695652,357.862724414325C654.1666666666666,357.66941648326,659.8550724637681,357.4528372973,665.5434782608695,357.2188131434675C671.231884057971,356.98478898963504,676.9202898550724,356.73331986793,682.6086956521739,356.5207558500825C688.2971014492754,356.308191832235,693.9855072463769,356.134532918245,699.6739130434784,354.87796106366835C705.3623188405796,353.62138920909166,711.0507246376811,351.2819044139283,716.7391304347826,350.08981287764414C722.427536231884,348.89772134136,728.1159420289855,348.85302306395494,733.804347826087,348.78187355873496C739.4927536231885,348.710724053515,745.18115942029,348.61312332047993,750.8695652173914,348.420905550895C756.5579710144929,348.22868778131004,762.2463768115941,347.941852975175,767.9347826086956,347.66175025917255C773.623188405797,347.38164754317,779.3115942028985,347.1082769173,782.1557971014494,346.97159160436496L785,346.83490629143L785,354.400679288735L782.1557971014494,354.35691839381997C779.3115942028985,354.31315749890496,773.623188405797,354.225635709075,767.9347826086956,354.27365564600996C762.2463768115941,354.32167558294503,756.5579710144929,354.505237246645,750.8695652173914,354.57645456384995C745.18115942029,354.647671881055,739.4927536231885,354.60654485176497,733.804347826087,354.5633238527175C728.1159420289855,354.5201028536699,722.427536231884,354.47478788486495,716.7391304347826,355.3805515811191C711.0507246376811,356.28631527737326,705.3623188405796,358.14315763868666,699.6739130434781,359.07157881934336C693.9855072463769,360,688.2971014492754,360,682.6086956521739,360C676.9202898550724,360,671.231884057971,360,665.5434782608695,360C659.8550724637681,360,654.1666666666666,360,648.4782608695652,360C642.7898550724639,360,637.1014492753624,360,631.4130434782609,360C625.7246376811594,360,620.036231884058,360,614.3478260869565,359.83066161835586C608.6594202898551,359.66132323671167,602.9710144927536,359.3226464734233,597.2826086956521,359.14673027708915C591.5942028985507,358.970814080755,585.9057971014493,358.957658451375,580.2173913043478,358.94859987245246C574.5289855072464,358.93954129353,568.8405797101449,358.93457976506505,563.1521739130435,358.90095798520747C557.463768115942,358.86733620535,551.7753623188406,358.8050541741,546.0869565217391,358.5465828066258C540.3985507246376,358.28811143915163,534.7101449275361,357.83345073545337,529.0217391304348,357.7096553783117C523.3333333333334,357.58586002117,517.6449275362319,357.792930010585,511.95652173913044,358.2297983386258C506.268115942029,358.6666666666667,500.57971014492756,359.3333333333333,494.8913043478262,359.6666666666667C489.2028985507247,360,483.5144927536232,360,477.82608695652175,360C472.1376811594203,360,466.4492753623188,360,460.76086956521743,360C455.072463768116,360,449.3840579710145,360,443.695652173913,360C438.00724637681157,360,432.3188405797102,360,426.63043478260875,360C420.94202898550725,360,415.25362318840575,360,409.5652173913043,360C403.8768115942028,360,398.18840579710144,360,392.5,360C386.81159420289856,360,381.1231884057972,360,375.4347826086957,360C369.74637681159425,360,364.05797101449275,360,358.3695652173913,360C352.6811594202898,360,346.99275362318843,360,341.30434782608694,360C335.6159420289855,360,329.92753623188406,360,324.2391304347826,360C318.5507246376812,360,312.8623188405797,360,307.17391304347825,358.9907606268334C301.4855072463768,357.9815212536667,295.7971014492753,355.96304250733334,290.1086956521739,355.20156096566666C284.42028985507244,354.44007942400003,278.731884057971,354.93559508699997,273.04347826086956,355.77816779349996C267.3550724637681,356.6207405,261.6666666666667,357.81037025,255.97826086956525,358.57185179166663C250.28985507246375,359.3333333333333,244.60144927536234,359.6666666666667,238.91304347826087,354.24270280416664C233.2246376811594,348.81873894166665,227.53623188405797,337.63747788333336,221.84782608695653,335.1571866464167C216.15942028985503,332.6768954095,210.4710144927536,338.89757399399997,204.78260869565213,343.686086266C199.09420289855072,348.474598538,193.40579710144928,351.8309444975,187.71739130434784,342.2468140050583C182.02898550724638,332.6626835126167,176.3405797101449,310.1380765682333,170.65217391304347,301.19855142676664C164.96376811594203,292.2590262853,159.2753623188406,296.90458294675,153.58695652173913,299.1287158806917C147.89855072463766,301.3528488146333,142.21014492753622,301.1555580210666,136.52173913043478,301.17442358803333C130.83333333333334,301.193289155,125.14492753623188,301.4283110825,119.45652173913044,299.96623970875C113.76811594202898,298.50416833500003,108.07971014492755,295.34500366000003,102.39130434782608,291.1987622725C96.70289855072463,287.052520885,91.01449275362319,281.919202785,85.32608695652173,281.86884784750004C79.6376811594203,281.81849291,73.94927536231883,286.85110113499996,68.26086956521739,291.2415181414C62.57246376811594,295.6319351478,56.88405797101449,299.3801609356,51.19565217391304,302.345268669725C45.507246376811594,305.31037640384994,39.81884057971015,307.49236608430004,34.130434782608695,308.38136284125C28.442028985507246,309.2703595982,22.753623188405797,308.86636343165,17.065217391304348,308.7295082937C11.376811594202898,308.59265315575,5.688405797101449,308.7229390464,2.8442028985507246,308.78808199172505L0,308.85322493705Z"
             id="path155">
            <title
               id="title153">Vinyl</title>
          </path>
        </g>
        <g
           id="xAxis"
           transform="translate(0,360)"
           fill="none"
           font-size="10"
           font-family="sans-serif"
           text-anchor="middle">
          <path
             class="domain"
             stroke="currentColor"
             d="M0,0H785"
             id="path159" />
          <g
             class="tick"
             opacity="1"
             transform="translate(34.130434782608695,0)"
             id="g165">
            <line
               stroke="currentColor"
               y2="6"
               id="line161" />
            <text
               fill="currentColor"
               y="9"
               dy="0.71em"
               id="text163">1975</text>
          </g>
          <g
             class="tick"
             opacity="1"
             transform="translate(119.45652173913044,0)"
             id="g171">
            <line
               stroke="currentColor"
               y2="6"
               id="line167" />
            <text
               fill="currentColor"
               y="9"
               dy="0.71em"
               id="text169">1980</text>
          </g>
          <g
             class="tick"
             opacity="1"
             transform="translate(204.78260869565216,0)"
             id="g177">
            <line
               stroke="currentColor"
               y2="6"
               id="line173" />
            <text
               fill="currentColor"
               y="9"
               dy="0.71em"
               id="text175">1985</text>
          </g>
          <g
             class="tick"
             opacity="1"
             transform="translate(290.1086956521739,0)"
             id="g183">
            <line
               stroke="currentColor"
               y2="6"
               id="line179" />
            <text
               fill="currentColor"
               y="9"
               dy="0.71em"
               id="text181">1990</text>
          </g>
          <g
             class="tick"
             opacity="1"
             transform="translate(375.4347826086957,0)"
             id="g189">
            <line
               stroke="currentColor"
               y2="6"
               id="line185" />
            <text
               fill="currentColor"
               y="9"
               dy="0.71em"
               id="text187">1995</text>
          </g>
          <g
             class="tick"
             opacity="1"
             transform="translate(460.76086956521743,0)"
             id="g195">
            <line
               stroke="currentColor"
               y2="6"
               id="line191" />
            <text
               fill="currentColor"
               y="9"
               dy="0.71em"
               id="text193">2000</text>
          </g>
          <g
             class="tick"
             opacity="1"
             transform="translate(546.0869565217391,0)"
             id="g201">
            <line
               stroke="currentColor"
               y2="6"
               id="line197" />
            <text
               fill="currentColor"
               y="9"
               dy="0.71em"
               id="text199"
               inkscape:label="text199"
               style="-inkscape-font-specification:'sans-serif, Normal';font-family:sans-serif;font-weight:normal;font-style:normal;font-stretch:normal;font-variant:normal;font-size:10px;font-variant-ligatures:normal;font-variant-caps:normal;font-variant-numeric:normal;font-variant-east-asian:normal;fill:currentColor"><tspan
                 sodipodi:role="line"
                 id="tspan964">2005</tspan></text>
          </g>
          <g
             class="tick"
             opacity="1"
             transform="translate(631.4130434782609,0)"
             id="g207">
            <line
               stroke="currentColor"
               y2="6"
               id="line203" />
            <text
               fill="currentColor"
               y="9"
               dy="0.71em"
               id="text205"
               style="-inkscape-font-specification:'sans-serif, Normal';font-family:sans-serif;font-weight:normal;font-style:normal;font-stretch:normal;font-variant:normal;font-size:10px;font-variant-ligatures:normal;font-variant-caps:normal;font-variant-numeric:normal;font-variant-east-asian:normal;fill:currentColor"><tspan
                 sodipodi:role="line"
                 id="tspan968">2010</tspan></text>
          </g>
          <g
             class="tick"
             opacity="1"
             transform="translate(716.7391304347826,0)"
             id="g213">
            <line
               stroke="currentColor"
               y2="6"
               id="line209" />
            <text
               fill="currentColor"
               y="9"
               dy="0.71em"
               id="text211"
               style="-inkscape-font-specification:'sans-serif, Normal';font-family:sans-serif;font-weight:normal;font-style:normal;font-stretch:normal;font-variant:normal;font-size:10px;font-variant-ligatures:normal;font-variant-caps:normal;font-variant-numeric:normal;font-variant-east-asian:normal;fill:currentColor"><tspan
                 sodipodi:role="line"
                 id="tspan966">2015</tspan></text>
          </g>
        </g>
        <text
           style="font-family:Arial, sans-serif;font-size:21.3333px;fill:#7b7b7b;font-weight:bold;-inkscape-font-specification:'Arial, sans-serif, Bold';font-style:normal;font-stretch:normal;font-variant:normal;font-variant-ligatures:normal;font-variant-caps:normal;font-variant-numeric:normal;font-variant-east-asian:normal;dominant-baseline:hanging;text-anchor:start"
           x="4"
           text-anchor="start"
           dominant-baseline="hanging"
           id="text218">Revenues in millions (Adjusted for inflation)</text>
        <g
           id="labels">
          <text
             x="239.65018"
             y="242.69661"
             text-anchor="middle"
             alignment-baseline="middle"
             style="font-style:normal;font-variant:normal;font-weight:bold;font-stretch:normal;font-size:42.6667px;font-family:Arial, sans-serif;-inkscape-font-specification:'Arial, sans-serif, Bold';font-variant-ligatures:normal;font-variant-caps:normal;font-variant-numeric:normal;font-variant-east-asian:normal;text-anchor:middle;fill:#000000"
             id="text220">Tape</text>
          <text
             x="461.25671"
             y="219.5005"
             text-anchor="middle"
             alignment-baseline="middle"
             style="font-style:normal;font-variant:normal;font-weight:bold;font-stretch:normal;font-size:96px;font-family:Arial, sans-serif;-inkscape-font-specification:'Arial, sans-serif, Bold';font-variant-ligatures:normal;font-variant-caps:normal;font-variant-numeric:normal;font-variant-east-asian:normal;text-anchor:middle;fill:#000000"
             id="text222">Disc</text>
          <text
             x="602.56372"
             y="325.43204"
             text-anchor="middle"
             alignment-baseline="middle"
             style="font-style:normal;font-variant:normal;font-weight:bold;font-stretch:normal;font-size:16px;font-family:Arial, sans-serif;-inkscape-font-specification:'Arial, sans-serif, Bold';font-variant-ligatures:normal;font-variant-caps:normal;font-variant-numeric:normal;font-variant-east-asian:normal;text-anchor:middle;fill:#000000"
             id="text224">Download</text>
          <text
             x="532.45795"
             y="349.71402"
             text-anchor="middle"
             alignment-baseline="middle"
             style="font-weight:bold;font-size:10px;font-family:Arial, sans-serif;fill:#000000"
             id="text226">Other</text>
          <text
             x="781.11237"
             y="274.22177"
             text-anchor="end"
             alignment-baseline="middle"
             style="font-style:normal;font-variant:normal;font-weight:bold;font-stretch:normal;font-size:13.3333px;font-family:Arial, sans-serif;-inkscape-font-specification:'Arial, sans-serif, Bold';font-variant-ligatures:normal;font-variant-caps:normal;font-variant-numeric:normal;font-variant-east-asian:normal;text-anchor:end;fill:#000000"
             id="text228">Streaming</text>
          <text
             x="77.62896"
             y="263.26245"
             text-anchor="middle"
             alignment-baseline="middle"
             style="font-style:normal;font-variant:normal;font-weight:bold;font-stretch:normal;font-size:53.3333px;font-family:Arial, sans-serif;-inkscape-font-specification:'Arial, sans-serif, Bold';font-variant-ligatures:normal;font-variant-caps:normal;font-variant-numeric:normal;font-variant-east-asian:normal;text-anchor:middle;fill:#000000"
             id="text230">Vinyl</text>
        </g>
      </g>
      <text
         x="4"
         y="4"
         style="font-family: Arial, sans-serif; font-size: 12px; fill: black; font-weight: bold; dominant-baseline: hanging;"
         id="text235" />
    </g>
  </g>
</svg>
